<svg xmlns="http://www.w3.org/2000/svg" width="252" height="64" viewBox="0 0 252 64" fill="none">
  <g transform="translate(3 4) scale(0.875)">
    <g stroke="#dc2626" stroke-linecap="round" stroke-linejoin="round">
      <circle cx="32" cy="32" r="28" stroke-width="2"/>
      <g stroke-width="1.6" opacity="0.85">
        <line x1="16" y1="22" x2="12.2" y2="12.2"/>
        <line x1="48" y1="22" x2="51.8" y2="12.2"/>
        <line x1="16" y1="44" x2="12.2" y2="51.8"/>
        <line x1="48" y1="44" x2="51.8" y2="51.8"/>
        <line x1="32" y1="38" x2="32" y2="60"/>
        <line x1="16" y1="22" x2="32" y2="4"/>
        <line x1="48" y1="22" x2="32" y2="4"/>
      </g>
      <polyline points="16,44 16,22 32,38 48,22 48,44" stroke-width="4"/>
    </g>
    <g fill="#dc2626">
      <circle cx="32" cy="4" r="3"/><circle cx="51.8" cy="12.2" r="2.4"/>
      <circle cx="60" cy="32" r="2.4"/><circle cx="51.8" cy="51.8" r="2.4"/>
      <circle cx="32" cy="60" r="3"/><circle cx="12.2" cy="51.8" r="2.4"/>
      <circle cx="4" cy="32" r="2.4"/><circle cx="12.2" cy="12.2" r="2.4"/>
      <circle cx="16" cy="44" r="3.4"/><circle cx="16" cy="22" r="3.4"/>
      <circle cx="32" cy="38" r="3.8"/><circle cx="48" cy="22" r="3.4"/>
      <circle cx="48" cy="44" r="3.4"/>
    </g>
  </g>
  <text x="70" y="30" font-family="Inter, system-ui, -apple-system, 'Segoe UI', sans-serif" font-size="29" font-weight="700" letter-spacing="-1" fill="#231F20"><tspan fill="#dc2626">net</tspan>MultiAgent</text>
  <text x="71" y="51" font-family="Inter, system-ui, -apple-system, 'Segoe UI', sans-serif" font-size="17" font-weight="500" letter-spacing="4" fill="#dc2626">PLATFORM</text>
</svg>
